<?xml version="1.0" standalone="no"?>
<!DOCTYPE svg PUBLIC "-//W3C//DTD SVG 20010904//EN"
 "http://www.w3.org/TR/2001/REC-SVG-20010904/DTD/svg10.dtd">
<svg version="1.0" xmlns="http://www.w3.org/2000/svg"
 width="200.000000pt" height="200.000000pt" viewBox="0 0 200.000000 200.000000"
 preserveAspectRatio="xMidYMid meet">
<metadata>
Created by potrace 1.10, written by Peter Selinger 2001-2011
</metadata>
<g transform="translate(0.000000,200.000000) scale(0.100000,-0.100000)"
fill="#000000" stroke="none">
<path d="M394 1726 c-28 -6 -85 -28 -126 -48 -93 -47 -182 -138 -233 -238
l-35 -70 0 -154 0 -154 41 -80 c142 -278 488 -371 746 -202 150 99 233 252
233 434 0 111 -12 166 -48 214 -23 31 -23 36 -12 78 23 82 2 57 -65 -77 -43
-86 -62 -135 -55 -137 11 -4 24 9 33 33 10 24 20 -10 25 -79 5 -76 -4 -139
-16 -119 -9 13 -62 40 -116 59 -22 8 -71 29 -107 47 l-67 32 -6 65 c-3 36 -6
109 -6 162 0 60 -4 99 -11 104 -8 5 -10 -40 -7 -163 l3 -169 -184 -124 c-101
-69 -190 -131 -198 -138 -11 -11 -13 -11 -13 2 0 9 3 16 8 16 4 0 6 75 4 167
l-4 168 191 127 c213 142 205 140 309 91 59 -28 65 -41 22 -49 -35 -7 -40 -24
-7 -23 38 1 251 65 254 76 3 8 -9 10 -34 6 -34 -4 -43 -1 -78 32 -107 98 -290
144 -441 111z m256 -36 c62 -18 189 -93 197 -116 2 -6 -13 -14 -33 -17 -31 -5
-52 1 -121 35 -71 35 -95 42 -162 46 -361 21 -581 -385 -367 -676 211 -286
660 -195 751 153 19 75 19 125 0 200 -15 55 -15 63 1 97 9 21 20 38 24 38 16
0 51 -119 57 -191 12 -152 -40 -293 -146 -397 -96 -95 -210 -141 -346 -142
-194 0 -363 106 -451 284 l-39 80 0 130 c0 130 0 132 36 206 77 161 218 266
389 289 71 9 130 4 210 -19z m-140 -79 c0 -9 -293 -211 -306 -211 -3 0 -14
-10 -25 -22 -17 -21 -19 -40 -18 -183 0 -88 -1 -167 -1 -175 -1 -8 -12 12 -25
45 -19 47 -24 79 -24 152 -1 51 4 105 10 120 65 160 175 253 324 273 33 4 61
8 63 9 1 0 2 -3 2 -8z m218 -434 c79 -35 142 -67 140 -72 -2 -5 -83 -62 -182
-128 l-179 -118 -148 63 c-82 35 -148 66 -146 69 2 8 359 249 367 249 3 0 70
-28 148 -63z m128 -151 c-25 -59 -104 -136 -176 -170 -60 -29 -73 -31 -175
-31 -99 0 -116 3 -168 27 -57 27 -175 128 -149 128 6 0 12 -4 12 -8 0 -5 46
-28 102 -51 57 -24 119 -51 139 -62 20 -10 47 -19 60 -19 14 0 98 50 194 114
94 63 171 113 173 111 2 -1 -4 -19 -12 -39z"/>
<path d="M360 1439 c-106 -73 -146 -105 -148 -122 -1 -12 1 -72 5 -134 l8
-111 150 100 c83 54 152 104 154 110 6 16 -10 258 -18 257 -3 -1 -71 -46 -151
-100z m133 -28 c-5 -54 -10 -64 -34 -78 -22 -13 -29 -25 -29 -49 0 -26 -7 -37
-35 -54 -19 -12 -33 -25 -31 -29 2 -3 -21 -23 -52 -44 -68 -46 -75 -40 -66 66
l7 75 51 36 51 36 3 -41 c4 -56 1 -63 -60 -103 -57 -39 -49 -47 19 -18 32 13
43 23 43 39 0 13 12 30 30 43 21 15 30 30 30 50 0 20 9 35 30 50 33 23 40 43
13 33 -30 -11 -69 -57 -65 -75 2 -10 -2 -18 -8 -18 -6 0 -8 5 -5 10 9 15 -36
49 -55 42 -21 -7 -14 -1 62 51 38 26 72 47 78 47 5 0 10 6 10 13 0 7 5 5 10
-5 6 -9 7 -43 3 -77z m-1 -133 c-19 -22 -28 -23 -36 -3 -3 9 4 25 16 37 21 21
22 21 29 2 4 -12 1 -26 -9 -36z"/>
<path d="M666 1465 c3 -8 26 -26 50 -40 25 -15 44 -33 44 -43 0 -21 49 -103
50 -83 0 8 -8 39 -17 69 -17 50 -22 56 -75 83 -39 20 -56 24 -52 14z"/>
<path d="M1294 1425 c-13 -10 -45 -14 -106 -15 -126 0 -128 -2 -128 -173 0
-127 1 -135 23 -155 13 -12 31 -22 41 -22 28 0 66 46 66 79 0 24 5 32 24 37
32 8 43 0 51 -36 4 -18 23 -43 46 -62 21 -17 39 -37 39 -43 0 -22 37 -45 73
-45 43 0 87 34 111 85 l17 36 30 -26 c35 -29 56 -31 85 -10 19 12 24 12 40 0
22 -17 56 -19 70 -5 6 6 20 6 41 -2 25 -10 35 -9 55 4 21 14 27 14 49 2 38
-21 79 -18 79 6 0 16 -7 20 -34 20 -30 0 -38 6 -63 48 l-28 47 -3 -51 c-3 -50
-3 -50 -32 -46 l-30 4 0 148 c0 145 0 148 23 154 12 3 25 6 30 6 4 0 7 -39 7
-87 l1 -88 30 38 c25 29 38 37 65 37 24 0 34 5 34 15 0 11 -12 15 -44 15 -41
0 -44 2 -50 32 -7 38 -32 68 -56 68 -28 0 -70 -39 -70 -65 0 -47 -8 -55 -42
-38 -22 12 -44 14 -82 8 -28 -4 -68 -7 -88 -6 -21 1 -48 -5 -60 -13 -21 -14
-28 -13 -70 7 -35 16 -48 28 -48 43 0 23 -39 64 -61 64 -8 0 -24 -7 -35 -15z
m58 -138 c-3 -102 0 -126 12 -137 9 -7 16 -24 16 -37 0 -22 -3 -24 -27 -18
-51 12 -53 18 -53 165 0 145 -1 143 45 149 6 1 9 -44 7 -122z m-82 63 c0 -30
0 -30 -60 -30 -60 0 -60 0 -60 -29 l0 -30 55 6 55 6 0 -32 c0 -31 0 -31 -55
-31 l-55 0 0 -55 c0 -54 0 -55 -30 -55 l-30 0 0 140 0 140 90 0 90 0 0 -30z
m187 -100 c25 -100 22 -101 54 23 9 32 14 37 39 37 17 0 30 -2 30 -4 0 -10
-74 -214 -86 -238 -18 -34 -47 -50 -82 -46 -21 2 -27 8 -27 28 0 19 5 25 21
25 11 0 28 6 36 13 13 11 11 22 -17 95 -53 131 -52 129 -14 125 30 -3 33 -7
46 -58z m292 34 c17 -22 21 -41 21 -109 l0 -82 -30 5 c-29 4 -29 4 -32 81 -3
70 -5 76 -25 79 -22 3 -23 1 -23 -76 l0 -80 -30 -4 -30 -5 0 102 c0 56 3 105
7 108 3 4 32 7 64 7 50 0 60 -3 78 -26z"/>
<path d="M1958 1261 l-37 -44 37 -52 c36 -52 37 -52 40 -24 2 16 -4 39 -12 51
-14 20 -14 24 0 39 9 10 14 30 12 45 l-3 28 -37 -43z"/>
</g>
</svg>
